# xmcd
#
# Track frame offsets:
#	150
#	19598
#	37807
#	54435
#	72959
#	91717
#
# Disc length: 1448 seconds
#
# Revision: 0
# Processed by: cddbd v1.5.2PL0 Copyright (c) Steve Scherf et al.
# Submitted via: EasyCDDAExtractor 9.1.3.1
#
DISCID=3b05a606
DTITLE=Vasilis Paiteris - tha taksidepsw tin psixi
DYEAR=1900
DGENRE=
TTITLE0=deka zwes
TTITLE1=tha taksidepsw tin psixi
TTITLE2=anoikste portes tou ouranou
TTITLE3=exw parapono
TTITLE4=feggari mou trello
TTITLE5=ale ta dick ( tsigganiko)
EXTD=
EXTT0=
EXTT1=
EXTT2=
EXTT3=
EXTT4=
EXTT5=
PLAYORDER=
